<svg width="20" height="16" viewBox="0 0 20 16" fill="none" xmlns="http://www.w3.org/2000/svg">
<path d="M3.71953 0.180917L0.0819695 5.07317C-0.0398433 5.23828 -0.0241563 5.48683 0.117481 5.63607L9.66607 15.8653C9.83579 16.0449 10.1642 16.0449 10.3339 15.8653L19.8825 5.63607C20.0242 5.48683 20.0398 5.23828 19.918 5.07317L16.2805 0.180917C16.1956 0.0684178 16.0539 -0.000852033 15.911 0.000237605H4.08897C3.9288 -0.00487702 3.80108 0.0731322 3.71953 0.180917ZM4.7568 0.889738H9.03377L6.13509 4.35741L4.7568 0.889738ZM10.9591 0.889738H15.2432L13.8649 4.36435L10.9591 0.889738ZM10 1.14685L13.1331 4.89249H6.86688L10 1.14685ZM16.0318 1.35535L18.6534 4.89249H14.6322L16.0318 1.35535ZM3.96108 1.36224L5.3678 4.89245H1.34659L3.96108 1.36224ZM1.48868 5.78195H5.71591L8.85617 13.6832L1.48868 5.78195ZM6.69637 5.78195H13.3036L10 14.1071L6.69637 5.78195ZM14.277 5.78195H18.5113L11.1509 13.6693L14.277 5.78195Z" fill="white"/>
</svg>
