<svg xmlns="http://www.w3.org/2000/svg" width="41.283" height="41.283" viewBox="0 0 41.283 41.283"><g transform="translate(-6 -46.462)"><g transform="translate(6 46.462)"><path d="M28.324,975.37a.94.94,0,0,0-.205.044,7.1,7.1,0,0,0-4.369,3.255,7.361,7.361,0,0,0-.557,4.97c.686,3.519,3.121,7.3,6.2,10.453s6.794,5.672,10.335,6.406a7.5,7.5,0,0,0,5.058-.528,7.611,7.611,0,0,0,3.489-4.413.938.938,0,0,0-.381-1.1l-6.685-4.193-.015-.015a1.78,1.78,0,0,0-.425-.19h-.029q-.036-.009-.073-.015h-.015a.915.915,0,0,0-.6.176.928.928,0,0,0-.088.059l-.029.044a.939.939,0,0,0-.1.1l-1.466,1.481a16.537,16.537,0,0,1-6.538-6.612l1.349-1.334a.941.941,0,0,0,.073-.073q.031-.028.059-.059s0-.01,0-.015c.02-.019.04-.038.059-.059,0,0,0-.01,0-.015l.029-.044.029-.029q.016-.036.029-.073s0-.01,0-.015l.015-.029c.01-.019.02-.039.029-.059s.011-.049.015-.073c0,0,0-.01,0-.015q.009-.044.015-.088s0-.01,0-.015q0-.037,0-.073s0-.01,0-.015q0-.037,0-.073c0-.01,0-.019,0-.029s-.009-.049-.015-.073c0,0,0-.01,0-.015a.933.933,0,0,0-.059-.161s0-.01,0-.015a.937.937,0,0,0-.059-.117l-.015-.029-.015-.015-4.178-6.861a.938.938,0,0,0-.777-.454q-.044,0-.088,0Zm-.337,2.067,3.416,5.644-1.422,1.407a.938.938,0,0,0-.147,1.129c2.17,3.758,4.741,6.682,8.342,8.268a.938.938,0,0,0,1.041-.191l1.51-1.51,5.512,3.445a5.212,5.212,0,0,1-2.316,2.668,5.624,5.624,0,0,1-3.812.352c-2.939-.609-6.489-2.919-9.383-5.879s-5.132-6.558-5.7-9.485a5.509,5.509,0,0,1,.381-3.724A4.748,4.748,0,0,1,27.987,977.437Z" transform="translate(-15.029 -967.391)" fill="#fff" fill-rule="evenodd"/><path d="M26.642,958.362A20.637,20.637,0,0,0,9.39,990.331l-2.308,7.7a.938.938,0,0,0,1.2,1.156l7.54-2.6a20.643,20.643,0,1,0,10.816-38.226Zm0,1.876a18.765,18.765,0,1,1-10.185,34.529.938.938,0,0,0-.817-.1L9.4,996.819l1.909-6.372a.938.938,0,0,0-.123-.8,18.764,18.764,0,0,1,15.452-29.411Z" transform="translate(-6 -958.362)" fill="#fff" fill-rule="evenodd"/></g></g></svg>